<svg width="11" height="7" viewBox="0 0 11 7" fill="none" xmlns="http://www.w3.org/2000/svg">
<path d="M5.40088 6.01133L10.0471 0.786645C10.1247 0.699469 10.168 0.583649 10.168 0.463208C10.168 0.342766 10.1247 0.226947 10.0471 0.139771L10.0419 0.134145C10.0043 0.0917373 9.95902 0.0579691 9.90886 0.034894C9.85869 0.0118184 9.80467 -8.15074e-05 9.75007 -8.15026e-05C9.69548 -8.14978e-05 9.64145 0.0118185 9.59129 0.034894C9.54112 0.0579691 9.49586 0.0917373 9.45826 0.134145L5.08326 5.05414L0.710008 0.134146C0.672407 0.0917381 0.627146 0.0579699 0.57698 0.0348948C0.526813 0.0118193 0.47279 -8.06916e-05 0.418196 -8.06868e-05C0.363602 -8.0682e-05 0.309578 0.0118193 0.259412 0.0348949C0.209246 0.05797 0.163985 0.0917381 0.126383 0.134146L0.121133 0.139772C0.043569 0.226948 0.000298945 0.342767 0.000298956 0.463209C0.000298967 0.58365 0.0435691 0.699469 0.121133 0.786646L4.76738 6.01133C4.80824 6.05728 4.85739 6.09386 4.91184 6.11886C4.96628 6.14385 5.0249 6.15674 5.08413 6.15674C5.14337 6.15674 5.20199 6.14385 5.25643 6.11886C5.31088 6.09386 5.36002 6.05728 5.40088 6.01133Z" fill="white"/>
</svg>
